<svg xmlns="http://www.w3.org/2000/svg" version="1.1" xmlns:xlink="http://www.w3.org/1999/xlink" xmlns:svgjs="http://svgjs.com/svgjs" width="1440" height="560" preserveAspectRatio="none" viewBox="0 0 1440 560"><g mask="url(&quot;#SvgjsMask1258&quot;)" fill="none"><rect width="1440" height="560" x="0" y="0" fill="url(#SvgjsLinearGradient1259)"></rect><path d="M1440 0L1377.41 0L1440 222.76z" fill="rgba(255, 255, 255, .1)"></path><path d="M1377.41 0L1440 222.76L1440 299.27L1271.41 0z" fill="rgba(255, 255, 255, .075)"></path><path d="M1271.41 0L1440 299.27L1440 382.65999999999997L840.8600000000001 0z" fill="rgba(255, 255, 255, .05)"></path><path d="M840.86 0L1440 382.65999999999997L1440 393.07L397.84000000000003 0z" fill="rgba(255, 255, 255, .025)"></path><path d="M0 560L657.98 560L0 471.01z" fill="rgba(0, 0, 0, .1)"></path><path d="M0 471.01L657.98 560L848.6800000000001 560L0 253.32999999999998z" fill="rgba(0, 0, 0, .075)"></path><path d="M0 253.32999999999998L848.6800000000001 560L889.1600000000001 560L0 163.20999999999998z" fill="rgba(0, 0, 0, .05)"></path><path d="M0 163.20999999999998L889.1600000000001 560L1149.2800000000002 560L0 125.78999999999998z" fill="rgba(0, 0, 0, .025)"></path></g><defs><mask id="SvgjsMask1258"><rect width="1440" height="560" fill="#ffffff"></rect></mask><linearGradient x1="84.72%" y1="-39.29%" x2="15.28%" y2="139.29%" gradientUnits="userSpaceOnUse" id="SvgjsLinearGradient1259"><stop stop-color="#0e2a47" offset="0"></stop><stop stop-color="rgba(237, 87, 132, 1)" offset="1"></stop></linearGradient></defs></svg>