<svg xmlns="http://www.w3.org/2000/svg" version="1.1" xmlns:xlink="http://www.w3.org/1999/xlink" xmlns:svgjs="http://svgjs.dev/svgjs" viewBox="0 0 800 800"><defs><filter id="uuunion-blur" x="-100%" y="-100%" width="400%" height="400%" color-interpolation-filters="sRGB">
        <feGaussianBlur in="SourceGraphic" stdDeviation="7.5 0" result="blur"></feGaussianBlur>
        <feDropShadow stdDeviation="12.307692307692308" in="blur" dx="10" dy="10" flood-color="hsl(332, 87%, 70%)" flood-opacity="0.25" x="0%" y="0%" width="100%" height="100%"></feDropShadow>
      </filter><filter id="uuunion-blur2" x="-100%" y="-100%" width="400%" height="400%" color-interpolation-filters="sRGB">
        <feGaussianBlur in="SourceGraphic" stdDeviation="7.5 0" result="blur"></feGaussianBlur>
        <feDropShadow stdDeviation="12.307692307692308" in="blur" dx="-10" dy="-10" flood-color="hsl(332, 87%, 70%)" flood-opacity="0.25" x="0%" y="0%" width="100%" height="100%"></feDropShadow>
      </filter><linearGradient gradientTransform="rotate(0, 0.5, 0.5)" x1="50%" y1="0%" x2="50%" y2="100%" id="uuunion-grad"><stop stop-color="hsl(184, 74%, 44%)" offset="10%"></stop><stop stop-color="hsl(332, 87%, 70%)" offset="90%"></stop></linearGradient><linearGradient gradientTransform="rotate(135, 0.5, 0.5)" x1="50%" y1="0%" x2="50%" y2="100%" id="uuunion-grad2"><stop stop-color="hsl(184, 74%, 44%)" offset="25%"></stop><stop stop-color="hsl(332, 87%, 70%)" offset="100%"></stop></linearGradient><linearGradient gradientTransform="rotate(333, 0.5, 0.5)" x1="50%" y1="0%" x2="50%" y2="100%" id="uuunion-grad3"><stop stop-color="hsl(184, 74%, 44%)" offset="0%"></stop><stop stop-color="hsl(332, 87%, 70%)" offset="75%"></stop></linearGradient></defs><path d="M-79.16 -77.74Q-64.46 -75.74 -49.76 -73.99 -35.06 -72.6 -20.35 -71.66 -5.65 -71.22 9.04 -71.31 23.74 -71.92 38.45 -73.02 53.15 -74.54 67.85 -76.38 82.55 -78.44 97.26 -80.6 111.96 -82.72 126.66 -84.67 141.37 -86.35 156.07 -87.64 170.77 -88.47 185.47 -88.79 200.18 -88.58 214.88 -87.86 229.58 -86.66 244.28 -85.07 258.99 -83.16 273.69 -81.07 288.39 -78.91 303.09 -76.82 317.8 -74.91 332.5 -73.32 347.2 -72.12 361.91 -71.4 376.61 -71.2 391.31 -71.52 406.01 -72.36 420.72 -73.65 435.42 -75.33 450.12 -77.29 464.82 -79.4 479.53 -81.56 494.23 -83.62 508.93 -85.46 523.63 -86.98 538.34 -88.07 553.04 -88.68 567.74 -88.76 582.45 -88.32 597.15 -87.38 611.85 -85.99 626.55 -84.24 641.26 -82.24 655.96 -80.1 670.66 -77.96 685.36 -75.93 700.07 -74.15 714.77 -72.73 729.47 -71.74 744.17 -71.25 758.88 -71.28 773.58 -71.84 788.28 -72.89 802.99 -74.36 817.69 -76.18 832.39 -78.22 851.98 -73.97 856.14 -52.63 859.72 -37.7 866.96 -22.76 876.56 -7.82 886.79 7.1 895.78 22.04 901.92 36.97 904.09 51.91 901.91 66.85 895.76 81.78 886.76 96.72 876.53 111.65 866.94 126.59 859.7 141.52 856.13 156.46 856.88 171.4 861.82 186.33 870.04 201.27 880.06 216.2 890.07 231.14 898.25 246.08 903.14 261.01 903.84 275.95 900.22 290.88 892.95 305.82 883.34 320.75 873.11 335.69 864.14 350.63 858.03 365.56 855.9 380.5 858.12 395.43 864.3 410.37 873.32 425.31 883.55 440.24 893.13 455.18 900.34 470.11 903.87 485.05 903.08 499.99 898.11 514.92 889.87 529.86 879.84 544.79 869.84 559.73 861.68 574.66 856.83 589.6 856.16 604.54 859.81 619.47 867.12 634.41 876.74 649.34 886.96 664.28 895.92 679.22 902 694.15 904.09 709.09 901.83 724.02 895.62 738.96 886.58 753.89 876.35 768.83 866.78 783.77 859.6 798.7 856.11 813.64 856.94 828.57 861.94 843.51 870.2 858.45 880.24 873.38 865.23 878.99 850.23 884.67 835.23 890.06 820.22 894.84 805.22 898.74 790.21 901.5 775.21 902.97 760.21 903.06 745.2 901.76 730.2 899.15 715.19 895.39 700.19 890.7 685.19 885.37 670.18 879.72 655.18 874.08 640.18 868.8 625.17 864.19 610.17 860.53 595.16 858.04 580.16 856.88 565.16 857.1 550.15 858.7 535.15 861.59 520.14 865.58 505.14 870.44 490.14 875.87 475.13 881.55 460.13 887.14 445.12 892.3 430.12 896.72 415.12 900.13 400.11 902.33 385.11 903.19 370.1 902.65 355.1 900.75 340.1 897.6 325.09 893.39 310.09 888.38 295.08 882.86 280.08 877.17 265.08 871.65 250.07 866.63 235.07 862.41 220.06 859.26 205.06 857.35 190.06 856.8 175.05 857.65 160.05 859.85 145.04 863.25 130.04 867.66 115.04 872.82 100.03 878.41 85.03 884.09 70.02 889.52 55.02 894.39 40.02 898.38 25.01 901.27 10.01 902.88 -4.99 903.12 -19.99 901.96 -34.99 899.48 -50 895.83 -65 891.22 -80.01 885.94 -79.55 870.89 -79.17 855.83 -78.94 840.77 -78.9 825.71 -79.06 810.66 -79.39 795.6 -79.83 780.54 -80.3 765.48 -80.71 750.42 -80.99 735.37 -81.09 720.31 -81 705.25 -80.72 690.19 -80.31 675.14 -79.85 660.08 -79.41 645.02 -79.07 629.96 -78.91 614.91 -78.94 599.85 -79.16 584.79 -79.53 569.73 -79.99 554.67 -80.45 539.62 -80.82 524.56 -81.05 509.5 -81.08 494.44 -80.92 479.39 -80.59 464.33 -80.16 449.27 -79.69 434.21 -79.28 419.16 -79 404.1 -78.9 389.04 -78.99 373.98 -79.27 358.92 -79.68 343.87 -80.15 328.81 -80.59 313.75 -80.92 298.69 -81.08 283.64 -81.05 268.58 -80.83 253.52 -80.45 238.46 -80 223.41 -79.54 208.35 -79.17 193.29 -78.94 178.23 -78.91 163.17 -79.07 148.12 -79.4 133.06 -79.84 118 -80.3 102.94 -80.71 87.89 -81 72.83 -81.09 57.77 -81 42.71 -80.72 27.66 -80.31 12.6 -79.84 -2.45 -79.4 -17.51 -79.07 -32.57 -78.91 -47.62 -78.94 -62.68 -79.16 -77.74" fill="url(#uuunion-grad)"></path><path d="M-79.16 -77.74Q-78.94 -62.68 -78.91 -47.62 -79.07 -32.57 -79.4 -17.51 -79.84 -2.45 -80.31 12.6 -80.72 27.66 -81 42.71 -81.09 57.77 -81 72.83 -80.71 87.89 -80.3 102.94 -79.84 118 -79.4 133.06 -79.07 148.12 -78.91 163.17 -78.94 178.23 -79.17 193.29 -79.54 208.35 -80 223.41 -80.45 238.46 -80.83 253.52 -81.05 268.58 -81.08 283.64 -80.92 298.69 -80.59 313.75 -80.15 328.81 -79.68 343.87 -79.27 358.92 -78.99 373.98 -78.9 389.04 -79 404.1 -69.23 406.57 -59.47 408.86 -49.71 410.91 -39.95 412.68 -30.19 414.1 -20.43 415.14 -2.13 415.94 1.03 415.99 13.12 409.21 25.22 401.79 37.37 393.8 49.59 385.3 61.92 376.41 74.38 367.23 86.98 357.89 99.74 348.52 112.66 339.24 125.74 330.2 138.96 321.48 152.3 313.21 165.74 305.45 179.23 298.25 192.74 291.66 206.22 285.68 219.63 280.29 232.92 275.45 246.04 271.08 258.96 267.12 271.63 263.45 284.04 259.96 296.16 256.54 307.99 253.08 319.52 249.44 330.78 245.54 341.79 241.27 352.59 236.55 363.23 231.34 373.76 225.59 384.26 219.29 394.78 212.45 405.4 205.1 416.19 197.3 427.22 189.11 438.56 180.63 450.25 171.95 462.34 163.16 474.88 154.39 487.86 145.74 501.31 137.29 515.2 129.15 529.5 121.38 544.17 114.05 559.16 107.18 574.38 100.81 589.76 94.92 605.19 89.49 620.59 84.49 635.85 79.85 650.87 75.49 665.56 71.35 679.83 67.32 693.6 63.32 706.82 59.24 719.43 55 731.42 50.51 742.77 45.72 753.51 40.56 763.67 35 773.32 29 782.52 22.58 791.38 15.75 800 8.53 789.45 -9.19 781.48 -26.91 778.05 -44.63 779.99 -62.36 786.83 -80.08 796.89 -97.81 807.71 -115.53 816.64 -133.25 801.44 -132.46 786.24 -132.11 771.04 -132.23 755.84 -132.81 740.63 -133.82 725.43 -135.2 710.23 -136.86 695.03 -138.7 679.82 -140.63 664.62 -142.51 649.42 -144.25 634.22 -145.73 619.01 -146.88 603.81 -147.61 588.61 -147.89 573.41 -147.7 558.2 -147.06 543 -145.99 527.8 -144.57 512.6 -142.88 497.39 -141.01 482.19 -139.09 466.99 -137.21 451.79 -135.51 436.59 -134.07 421.38 -132.98 406.18 -132.31 390.98 -132.1 375.78 -132.35 360.57 -133.06 345.37 -134.18 330.17 -135.65 314.97 -137.37 299.76 -139.25 284.56 -141.18 269.36 -143.03 254.16 -144.71 238.95 -146.1 223.75 -147.13 208.55 -147.74 193.35 -147.89 178.14 -147.56 162.94 -146.79 147.74 -145.62 132.54 -144.11 117.34 -142.35 102.13 -140.46 86.93 -138.54 71.73 -136.7 56.53 -135.06 41.32 -133.72 26.12 -132.74 10.92 -132.2 -4.27 -132.12 -19.48 -132.51 -34.68 -133.34 -49.88 -134.57 -65.08 -136.12 -80.29 -137.9 -95.49 -139.81 -110.69 -141.72 -125.89 -143.54 -135.25 -131.57 -117 -112.84 -107.36 -104.14 -97.84 -95.37 -88.44 -86.56 -79.16 -77.74" fill="url(#uuunion-grad2)" filter="url(#uuunion-blur)"></path><path d="M780.03 413.65Q789.79 412.1 799.55 410.24 809.31 408.09 819.07 405.73 828.83 403.22 838.6 400.62 848.36 398 858.12 395.43 864.3 410.37 873.32 425.31 883.55 440.24 893.13 455.18 900.34 470.11 903.87 485.05 903.08 499.99 898.11 514.92 889.87 529.86 879.84 544.79 869.84 559.73 861.68 574.66 856.83 589.6 856.16 604.54 859.81 619.47 867.12 634.41 876.74 649.34 886.96 664.28 895.92 679.22 902 694.15 904.09 709.09 901.83 724.02 895.62 738.96 886.58 753.89 876.35 768.83 866.78 783.77 859.6 798.7 856.11 813.64 856.94 828.57 861.94 843.51 870.2 858.45 880.24 873.38 866.47 878.53 852.7 883.74 838.93 888.77 825.16 893.35 811.39 897.26 797.62 900.29 783.85 902.29 770.08 903.16 756.32 902.86 742.55 901.39 728.78 898.84 715.01 895.34 701.24 891.06 687.47 886.21 673.7 881.05 659.93 875.84 646.16 870.84 632.39 866.3 618.62 862.46 604.85 859.5 591.08 857.59 577.31 856.81 563.55 857.21 549.78 858.76 536.01 861.39 522.24 864.96 508.47 869.3 494.7 874.17 480.93 879.35 467.16 884.55 453.39 889.53 439.62 894.02 425.85 897.8 412.08 900.68 398.31 902.5 384.54 903.19 370.78 902.7 357.01 901.06 343.24 898.35 329.47 894.71 315.7 890.33 301.93 885.42 288.16 880.23 274.39 875.03 260.62 870.09 246.85 865.65 233.08 861.93 219.31 859.13 205.54 857.39 191.77 856.8 178.01 857.38 164.24 859.1 150.47 861.89 136.7 865.6 122.93 870.03 109.16 874.97 95.39 880.17 81.62 885.36 67.85 890.27 54.08 894.66 40.31 898.31 26.54 901.03 5.75 897.87 -1.51 882.89 -1.72 872.74 -1.88 862.59 -1.96 852.44 -1.96 842.29 -1.57 827.07 -0.76 822 11.65 815.19 24.19 807.5 36.85 798.99 49.65 789.75 62.57 779.93 75.6 769.67 88.73 759.15 101.93 748.54 115.16 738.03 128.4 727.8 141.6 718.01 154.72 708.8 167.73 700.29 180.58 692.57 193.24 685.7 205.7 679.69 217.93 674.52 229.92 670.15 241.67 666.48 253.19 663.4 264.51 660.78 275.64 658.45 286.65 656.26 297.56 654.03 308.44 651.59 319.34 648.79 330.33 645.48 341.46 641.56 352.81 636.92 364.42 631.51 376.33 625.29 388.6 618.29 401.25 610.52 414.29 602.08 427.72 593.04 441.54 583.54 455.72 573.72 470.21 563.73 484.96 553.72 499.91 543.86 514.97 534.29 530.07 525.15 545.13 516.55 560.03 508.59 574.71 501.33 589.07 494.81 603.05 489.02 616.56 483.95 629.57 479.54 642.02 475.7 653.92 472.32 665.24 469.29 676.02 466.45 686.29 463.68 696.11 460.82 705.55 457.73 714.7 454.28 723.67 450.36 732.56 445.88 741.49 440.77 750.59 434.99 759.97 428.53 774.89 417.52 780.03 413.65" fill="url(#uuunion-grad3)" filter="url(#uuunion-blur2)"></path></svg>