<svg xmlns="http://www.w3.org/2000/svg" version="1.1" xmlns:xlink="http://www.w3.org/1999/xlink" xmlns:svgjs="http://svgjs.dev/svgjs" viewBox="0 0 1422 800"><defs><filter id="uuunion-blur" x="-100%" y="-100%" width="400%" height="400%" color-interpolation-filters="sRGB">
        <feGaussianBlur in="SourceGraphic" stdDeviation="7.5 0" result="blur"></feGaussianBlur>
        <feDropShadow stdDeviation="12.307692307692308" in="blur" dx="10" dy="10" flood-color="hsl(316, 73%, 52%)" flood-opacity="0.25" x="0%" y="0%" width="100%" height="100%"></feDropShadow>
      </filter><filter id="uuunion-blur2" x="-100%" y="-100%" width="400%" height="400%" color-interpolation-filters="sRGB">
        <feGaussianBlur in="SourceGraphic" stdDeviation="7.5 0" result="blur"></feGaussianBlur>
        <feDropShadow stdDeviation="12.307692307692308" in="blur" dx="-10" dy="-10" flood-color="hsl(316, 73%, 52%)" flood-opacity="0.25" x="0%" y="0%" width="100%" height="100%"></feDropShadow>
      </filter><linearGradient gradientTransform="rotate(0, 0.5, 0.5)" x1="50%" y1="0%" x2="50%" y2="100%" id="uuunion-grad"><stop stop-color="hsl(37, 99%, 67%)" offset="10%"></stop><stop stop-color="hsl(316, 73%, 52%)" offset="90%"></stop></linearGradient><linearGradient gradientTransform="rotate(135, 0.5, 0.5)" x1="50%" y1="0%" x2="50%" y2="100%" id="uuunion-grad2"><stop stop-color="hsl(37, 99%, 67%)" offset="25%"></stop><stop stop-color="hsl(316, 73%, 52%)" offset="100%"></stop></linearGradient><linearGradient gradientTransform="rotate(333, 0.5, 0.5)" x1="50%" y1="0%" x2="50%" y2="100%" id="uuunion-grad3"><stop stop-color="hsl(37, 99%, 67%)" offset="0%"></stop><stop stop-color="hsl(316, 73%, 52%)" offset="75%"></stop></linearGradient></defs><path d="M-131.62 -88.74Q-118.63 -88.1 -105.64 -86.82 -92.65 -84.99 -79.65 -82.76 -66.66 -80.31 -53.67 -77.84 -40.68 -75.54 -27.69 -73.59 -14.69 -72.16 -1.7 -71.35 11.28 -71.23 24.27 -71.82 37.26 -73.05 50.25 -74.85 63.25 -77.05 76.24 -79.49 89.23 -81.96 102.22 -84.29 115.21 -86.27 128.21 -87.74 141.2 -88.6 154.19 -88.77 167.18 -88.24 180.17 -87.05 193.17 -85.3 206.16 -83.12 219.15 -80.69 232.14 -78.21 245.13 -75.87 258.12 -73.86 271.12 -72.34 284.11 -71.43 297.1 -71.21 310.09 -71.69 323.08 -72.83 336.08 -74.54 349.07 -76.69 362.06 -79.11 375.05 -81.59 388.04 -83.95 401.03 -85.99 414.03 -87.56 427.02 -88.51 440.01 -88.79 453 -88.37 465.99 -87.27 478.99 -85.59 491.98 -83.47 504.97 -81.07 517.96 -78.58 530.95 -76.21 543.95 -74.14 556.94 -72.53 569.93 -71.53 582.92 -71.2 595.91 -71.57 608.9 -72.61 621.9 -74.25 634.89 -76.35 647.88 -78.73 660.87 -81.22 673.86 -83.61 686.86 -85.71 699.85 -87.35 712.84 -88.41 725.83 -88.79 738.82 -88.47 751.82 -87.48 764.81 -85.88 777.8 -83.82 790.79 -81.45 803.78 -78.96 816.77 -76.55 829.77 -74.42 842.76 -72.74 855.75 -71.64 868.74 -71.2 881.73 -71.47 894.73 -72.41 907.72 -73.97 920.71 -76 933.7 -78.36 946.69 -80.84 959.69 -83.26 972.68 -85.42 985.67 -87.14 998.66 -88.29 1011.65 -88.78 1024.64 -88.57 1037.64 -87.67 1050.63 -86.16 1063.62 -84.15 1076.61 -81.82 1089.6 -79.34 1102.6 -76.91 1115.59 -74.72 1128.58 -72.96 1141.57 -71.76 1154.56 -71.22 1167.56 -71.38 1180.55 -72.23 1193.54 -73.7 1206.53 -75.67 1219.52 -77.99 1232.52 -80.47 1245.51 -82.91 1258.5 -85.11 1271.49 -86.91 1284.48 -88.16 1297.48 -88.75 1310.47 -88.65 1323.46 -87.85 1336.45 -86.42 1349.44 -84.48 1362.44 -82.19 1375.43 -79.71 1388.42 -77.26 1401.41 -75.03 1414.4 -73.2 1427.39 -71.9 1440.39 -71.26 1453.38 -71.31 1466.37 -72.06 1479.36 -73.44 1492.35 -75.34 1505.35 -77.62 1518.34 -80.09 1531.33 -82.55 1530.45 -67.61 1533.45 -52.68 1539.99 -37.74 1549.31 -22.81 1560.35 -7.87 1571.83 7.05 1582.43 21.99 1590.94 36.92 1596.36 51.86 1598.08 66.79 1595.91 81.73 1590.08 96.66 1581.27 111.6 1570.5 126.53 1559 141.47 1548.1 156.4 1539.05 171.33 1532.9 186.27 1530.35 201.2 1531.69 216.14 1536.78 231.07 1545.02 246.01 1555.47 260.94 1566.92 275.88 1578.06 290.81 1587.6 305.75 1594.45 320.68 1597.82 335.62 1597.32 350.55 1593 365.49 1585.37 380.42 1575.3 395.36 1563.96 410.29 1552.64 425.23 1542.65 440.16 1535.14 455.1 1530.97 470.03 1530.63 484.97 1534.16 499.9 1541.13 514.83 1550.77 529.77 1561.95 544.7 1573.38 559.64 1583.76 574.57 1591.89 589.51 1596.83 604.44 1598.01 619.38 1595.31 634.31 1589.02 649.25 1579.87 664.18 1568.92 679.12 1557.42 694.05 1546.71 708.99 1538.01 723.92 1532.32 738.86 1530.3 753.79 1532.18 768.73 1537.75 783.66 1546.36 798.6 1557.02 813.53 1568.51 828.46 1579.5 843.4 1588.73 858.33 1595.14 873.27 1581.49 879.75 1567.84 886.25 1554.19 892.26 1540.54 897.28 1526.89 900.92 1513.24 902.89 1499.59 903.03 1485.93 901.33 1472.28 897.92 1458.63 893.08 1444.98 887.2 1431.33 880.74 1417.68 874.22 1404.03 868.16 1390.38 863.05 1376.73 859.29 1363.08 857.19 1349.43 856.91 1335.78 858.47 1322.13 861.76 1308.48 866.5 1294.82 872.32 1281.17 878.75 1267.52 885.29 1253.87 891.4 1240.22 896.6 1226.57 900.47 1212.92 902.7 1199.27 903.13 1185.62 901.7 1171.97 898.54 1158.32 893.89 1144.67 888.14 1131.02 881.73 1117.37 875.19 1103.72 869.03 1090.06 863.75 1076.41 859.76 1062.76 857.39 1049.11 856.83 1035.46 858.12 1021.81 861.16 1008.16 865.7 994.51 871.39 980.86 877.76 967.21 884.31 953.56 890.52 939.91 895.88 926.26 899.98 912.61 902.48 898.95 903.18 885.3 902.03 871.65 899.12 858 894.68 844.35 889.07 830.7 882.73 817.05 876.17 803.4 869.92 789.75 864.47 776.1 860.27 762.45 857.64 748.8 856.8 735.15 857.81 721.5 860.59 707.85 864.93 694.2 870.47 680.54 876.77 666.89 883.32 653.24 889.62 639.59 895.14 625.94 899.45 612.29 902.21 598.64 903.19 584.99 902.32 571.34 899.67 557.69 895.44 544.04 889.98 530.39 883.72 516.74 877.16 503.09 870.83 489.44 865.23 475.78 860.81 462.13 857.93 448.48 856.81 434.83 857.54 421.18 860.06 407.53 864.18 393.88 869.56 380.23 875.78 366.58 882.33 352.93 888.7 339.28 894.37 325.63 898.89 311.98 901.9 298.33 903.16 284.68 902.57 271.03 900.18 257.38 896.17 243.72 890.87 230.07 884.7 216.42 878.15 202.77 871.76 189.12 866.02 175.47 861.39 161.82 858.26 148.17 856.86 134.52 857.31 120.87 859.57 107.22 863.46 93.57 868.68 79.92 874.8 66.27 881.34 52.62 887.76 38.97 893.57 25.31 898.29 11.66 901.55 -1.98 903.09 -15.63 902.78 -29.28 900.65 -42.93 896.87 -56.58 891.74 -70.23 885.67 -83.88 879.15 -97.53 872.7 -111.18 866.83 -124.83 862.01 -138.48 858.63 -152.13 856.95 -150.07 842.18 -147.11 827.4 -143.57 812.62 -139.88 797.85 -136.45 783.07 -133.68 768.29 -131.89 753.52 -131.29 738.74 -131.94 723.96 -133.77 709.19 -136.56 694.41 -140.01 679.63 -143.7 664.86 -147.22 650.08 -150.16 635.3 -152.19 620.53 -153.06 605.75 -152.68 590.97 -151.09 576.2 -148.48 561.42 -145.14 546.64 -141.46 531.87 -137.87 517.09 -134.77 502.32 -132.53 487.54 -131.4 472.76 -131.51 457.99 -132.84 443.21 -135.26 428.43 -138.47 413.66 -142.11 398.88 -145.76 384.1 -148.99 369.33 -151.45 354.55 -152.83 339.77 -152.99 325 -151.91 310.22 -149.71 295.44 -146.64 280.67 -143.06 265.89 -139.38 251.11 -136.02 236.34 -133.37 221.56 -131.74 206.78 -131.3 192.01 -132.12 177.23 -134.1 162.46 -137.01 147.68 -140.52 132.9 -144.21 118.13 -147.67 103.35 -150.51 88.57 -152.38 73.8 -153.08 59.02 -152.53 44.24 -150.78 29.47 -148.05 14.69 -144.64 -0.08 -140.95 -14.85 -137.4 -29.63 -134.4 -44.41 -132.3 -59.18 -131.34 -73.96 -131.62 -88.74" fill="url(#uuunion-grad)"></path><path d="M-131.63 -88.74Q-131.35 -73.96 -132.31 -59.18 -134.41 -44.41 -137.41 -29.63 -140.96 -14.85 -144.65 -0.08 -148.06 14.69 -150.79 29.47 -152.54 44.24 -153.09 59.02 -152.39 73.8 -150.52 88.57 -147.68 103.35 -144.22 118.13 -140.53 132.9 -137.02 147.68 -134.11 162.45 -132.13 177.23 -131.31 192.01 -131.75 206.78 -133.38 221.56 -136.03 236.34 -139.39 251.11 -143.07 265.89 -146.65 280.67 -149.72 295.44 -151.92 310.22 -153 325 -152.84 339.77 -151.46 354.55 -149 369.33 -145.77 384.1 -136.8 384.73 -127.84 385.91 -118.87 387.59 -109.91 389.71 -100.95 392.19 -91.98 394.96 -83.02 397.9 -74.05 400.92 -65.09 403.91 -56.13 406.76 -47.16 409.36 -38.2 411.63 -29.23 413.49 -20.27 414.86 -3.33 415.92 -0.34 415.98 10.39 412.21 21.18 407.59 32.02 402.22 42.91 396.22 53.86 389.75 64.85 383.01 75.89 376.18 86.98 369.49 98.12 363.13 109.29 357.26 120.51 352.05 131.76 347.6 143.04 343.99 154.35 341.22 165.69 339.29 177.05 338.11 188.42 337.58 199.8 337.55 211.2 337.84 222.59 338.26 233.99 338.62 245.38 338.72 256.76 338.39 268.13 337.47 279.47 335.85 290.8 333.45 302.1 330.23 313.37 326.2 324.61 321.42 335.82 315.98 346.98 310.02 358.11 303.7 369.2 297.19 380.24 290.69 391.24 284.38 402.2 278.43 413.11 273.01 423.98 268.22 434.8 264.17 445.59 260.89 456.33 258.4 467.03 256.65 477.7 255.55 488.33 255 498.94 254.85 509.51 254.93 520.07 255.05 530.6 255.05 541.12 254.75 551.63 253.99 562.14 252.65 572.64 250.64 583.15 247.88 593.68 244.38 604.21 240.16 614.77 235.28 625.36 229.84 635.97 223.97 646.63 217.84 657.32 211.61 668.06 205.44 678.86 199.52 689.71 193.99 700.62 188.98 711.6 184.59 722.64 180.89 733.75 177.9 744.94 175.62 756.2 173.99 767.54 172.92 778.96 172.29 790.46 171.97 802.04 171.8 813.69 171.61 825.43 171.23 837.24 170.53 849.13 169.37 861.09 167.63 873.12 165.26 885.21 162.21 897.37 158.48 909.58 154.12 921.84 149.19 934.15 143.81 946.5 138.09 958.88 132.19 971.29 126.25 983.72 120.44 996.16 114.91 1008.61 109.77 1021.05 105.15 1033.48 101.12 1045.89 97.73 1058.27 94.98 1070.61 92.85 1082.91 91.28 1095.15 90.18 1107.33 89.43 1119.45 88.9 1131.48 88.45 1143.43 87.92 1155.29 87.17 1167.05 86.07 1178.71 84.52 1190.26 82.43 1201.69 79.75 1213 76.45 1224.18 72.56 1235.24 68.12 1246.17 63.21 1256.97 57.92 1267.63 52.39 1278.16 46.75 1288.55 41.14 1298.81 35.69 1308.94 30.54 1318.95 25.78 1328.82 21.52 1338.58 17.81 1348.22 14.66 1357.75 12.09 1367.18 10.06 1376.51 8.5 1385.75 7.31 1394.91 6.39 1403.99 5.62 1413.02 4.86 1422 3.98 1410.31 -13.61 1400.45 -31.22 1393.96 -48.82 1391.84 -66.43 1394.43 -84.03 1401.32 -101.64 1411.44 -119.24 1423.21 -136.84 1410.88 -138.83 1398.56 -140.89 1386.23 -142.89 1373.91 -144.7 1361.58 -146.18 1349.26 -147.24 1336.93 -147.81 1324.6 -147.84 1312.28 -147.34 1299.95 -146.34 1287.63 -144.9 1275.3 -143.13 1262.98 -141.15 1250.65 -139.08 1238.33 -137.08 1226 -135.28 1213.67 -133.8 1201.35 -132.74 1189.02 -132.18 1176.7 -132.15 1164.37 -132.65 1152.05 -133.66 1139.72 -135.1 1127.4 -136.87 1115.07 -138.86 1102.75 -140.92 1090.42 -142.92 1078.09 -144.72 1065.77 -146.2 1053.44 -147.26 1041.12 -147.81 1028.79 -147.84 1016.47 -147.33 1004.14 -146.32 991.82 -144.88 979.49 -143.1 967.16 -141.11 954.84 -139.05 942.51 -137.05 930.19 -135.25 917.86 -133.78 905.54 -132.73 893.21 -132.17 880.89 -132.15 868.56 -132.67 856.24 -133.68 843.91 -135.13 831.58 -136.9 819.26 -138.89 806.93 -140.96 794.61 -142.95 782.28 -144.75 769.96 -146.22 757.63 -147.27 745.31 -147.82 732.98 -147.84 720.65 -147.32 708.33 -146.3 696 -144.85 683.68 -143.07 671.35 -141.08 659.03 -139.02 646.7 -137.02 634.38 -135.23 622.05 -133.76 609.73 -132.72 597.4 -132.17 585.07 -132.16 572.75 -132.68 560.42 -133.7 548.1 -135.15 535.77 -136.93 523.45 -138.92 511.12 -140.99 498.8 -142.98 486.47 -144.77 474.14 -146.24 461.82 -147.28 449.49 -147.82 437.17 -147.83 424.84 -147.31 412.52 -146.28 400.19 -144.83 387.87 -143.04 375.54 -141.05 363.22 -138.99 350.89 -136.99 338.56 -135.2 326.24 -133.74 313.91 -132.7 301.59 -132.16 289.26 -132.16 276.94 -132.69 264.61 -133.72 252.29 -135.18 239.96 -136.96 227.63 -138.96 215.31 -141.02 202.98 -143.01 190.66 -144.8 178.33 -146.26 166.01 -147.29 153.68 -147.83 141.36 -147.83 129.03 -147.29 116.71 -146.26 104.38 -144.8 92.05 -143.01 79.73 -141.02 67.4 -138.96 55.08 -136.96 42.75 -135.18 30.43 -133.72 18.1 -132.69 5.78 -132.16 -6.54 -132.16 -18.87 -132.7 -31.19 -133.74 -43.52 -135.2 -55.84 -136.99 -68.17 -138.99 -80.49 -141.05 -92.82 -143.04 -105.14 -144.83 -117.47 -146.28 -129.79 -147.3 -144.93 -140.47 -141.48 -118.34 -136.02 -103.56 -131.63 -88.74" fill="url(#uuunion-grad2)" filter="url(#uuunion-blur)"></path><path d="M1447.21 325.9Q1456.29 328.34 1465.37 330.49 1474.45 332.27 1483.54 333.6 1492.62 334.45 1501.7 334.79 1510.78 334.6 1519.86 333.89 1528.95 332.68 1538.03 331.02 1547.11 328.97 1556.19 326.6 1565.28 323.99 1574.36 321.24 1583.44 318.44 1592.52 315.7 1597.52 333.13 1597.32 350.55 1591.94 367.98 1582.23 385.4 1569.71 402.82 1556.33 420.25 1544.17 437.67 1535.14 455.1 1530.65 472.52 1531.39 489.94 1537.25 507.37 1547.33 524.79 1560.03 542.22 1573.38 559.64 1585.3 577.06 1593.93 594.49 1597.91 611.91 1596.63 629.33 1590.29 646.76 1579.87 664.18 1567 681.61 1553.7 699.03 1542.04 716.45 1533.83 733.88 1530.37 751.3 1532.18 768.73 1539 786.15 1549.74 803.57 1562.75 821 1575.98 838.42 1587.37 855.85 1595.14 873.27 1582.62 879.21 1570.1 885.2 1557.58 890.84 1545.06 895.75 1532.53 899.6 1520.01 902.13 1507.49 903.17 1494.97 902.65 1482.45 900.61 1469.93 897.18 1457.41 892.59 1444.89 887.15 1432.37 881.23 1419.84 875.23 1407.32 869.55 1394.8 864.57 1382.28 860.63 1369.76 858 1357.24 856.84 1344.72 857.24 1332.2 859.18 1319.67 862.51 1307.15 867.02 1294.63 872.41 1282.11 878.3 1269.59 884.31 1257.07 890.03 1244.55 895.07 1232.03 899.1 1219.51 901.84 1206.98 903.12 1194.46 902.83 1181.94 901.01 1169.42 897.77 1156.9 893.34 1144.38 888.01 1131.86 882.14 1119.34 876.12 1106.82 870.37 1094.29 865.26 1081.77 861.15 1069.25 858.3 1056.73 856.92 1044.21 857.08 1031.69 858.79 1019.17 861.93 1006.65 866.28 994.12 871.56 981.6 877.4 969.08 883.42 956.56 889.21 944.04 894.37 931.52 898.57 919 901.52 906.48 903.02 893.96 902.97 881.43 901.38 868.91 898.34 856.39 894.07 843.87 888.85 831.35 883.04 818.83 877.02 806.31 871.2 793.79 865.97 781.26 861.69 768.74 858.64 756.22 857.03 743.7 856.96 731.18 858.44 718.66 861.38 706.14 865.56 693.62 870.72 681.1 876.5 668.57 882.52 656.05 888.37 643.53 893.65 631.01 898.02 618.49 901.17 605.97 902.9 593.45 903.08 580.93 901.71 568.4 898.88 555.88 894.78 543.36 889.68 530.84 883.93 518.32 877.92 505.8 872.04 493.28 866.71 480.76 862.26 468.24 859.01 455.71 857.17 443.19 856.87 430.67 858.12 418.15 860.85 405.63 864.86 393.11 869.9 380.59 875.61 368.07 881.62 355.54 887.52 343.02 892.91 330.5 897.43 317.98 900.78 305.46 902.73 292.94 903.15 280.42 902.01 267.9 899.39 255.38 895.47 242.85 890.5 230.33 884.82 217.81 878.82 205.29 872.9 192.77 867.46 180.25 862.86 167.73 859.41 155.21 857.35 142.68 856.81 130.16 857.84 117.64 860.35 105.12 864.19 92.6 869.09 80.08 874.73 67.56 880.71 55.04 886.66 42.52 892.15 29.99 896.82 17.47 900.37 -0.88 897.79 -5.6 882.89 -4.24 872.74 -2.71 862.59 -1.1 852.44 0.52 842.29 3 827.07 4.43 822 17.44 814.88 30.3 806.29 42.98 796.41 55.52 785.49 67.92 773.88 80.18 761.96 92.34 750.12 104.41 738.76 116.41 728.24 128.37 718.83 140.3 710.76 152.24 704.15 164.2 698.99 176.19 695.21 188.25 692.62 200.38 690.95 212.59 689.87 224.89 689.01 237.29 688 249.78 686.47 262.36 684.09 275.03 680.6 287.77 675.82 300.57 669.65 313.41 662.1 326.28 653.28 339.15 643.38 352.01 632.67 364.84 621.46 377.61 610.11 390.31 598.97 402.92 588.4 415.43 578.67 427.82 570.04 440.09 562.65 452.23 556.58 464.25 551.79 476.14 548.18 487.92 545.54 499.6 543.61 511.19 542.09 522.72 540.63 534.21 538.91 545.68 536.6 557.17 533.44 568.69 529.21 580.29 523.8 591.98 517.15 603.81 509.3 615.79 500.38 627.94 490.59 640.29 480.18 652.86 469.45 665.65 458.72 678.68 448.31 691.93 438.5 705.42 429.53 719.11 421.59 733.01 414.78 747.09 409.13 761.31 404.58 775.65 401 790.07 398.2 804.53 395.92 814.71 397.94 824.9 399.98 835.09 401.9 845.3 403.58 855.51 404.89 865.73 405.72 875.96 405.98 886.19 405.61 896.43 404.57 906.68 402.86 916.92 400.49 927.18 397.52 937.43 394.03 947.69 390.1 957.94 385.85 968.2 381.41 978.46 376.93 988.72 372.52 998.98 368.34 1009.23 364.5 1019.48 361.11 1029.73 358.27 1039.97 356.03 1050.21 354.45 1060.44 353.52 1070.66 353.25 1080.88 353.57 1091.09 354.44 1101.29 355.75 1111.48 357.39 1121.66 359.24 1131.82 361.17 1141.98 363.04 1152.12 364.72 1162.25 366.09 1172.36 367.03 1182.46 367.46 1192.55 367.29 1202.61 366.5 1212.66 365.05 1222.7 362.96 1232.71 360.27 1242.7 357.04 1252.68 353.36 1262.63 349.33 1272.57 345.06 1282.48 340.69 1292.37 336.36 1302.23 332.18 1312.08 328.3 1321.9 324.81 1331.69 321.81 1341.46 319.38 1351.21 317.56 1360.93 316.38 1370.62 315.84 1380.29 315.89 1389.93 316.49 1399.55 317.55 1409.13 318.97 1418.69 320.65 1428.23 322.44 1437.73 324.24 1447.21 325.9" fill="url(#uuunion-grad3)" filter="url(#uuunion-blur2)"></path></svg>