<svg xmlns="http://www.w3.org/2000/svg"  viewBox="0 0 64 64" width="64px" height="64px"><path fill="#efd8be" d="M11,57V11c0-1.1,0.9-2,2-2h25.3c1.1,0,2.1,0.4,2.8,1.2l8.7,8.7c0.7,0.8,1.2,1.8,1.2,2.8V57c0,1.1-0.9,2-2,2H13 C11.9,59,11,58.1,11,57z"/><path fill="#bbdef9" d="M15,53V7c0-1.1,0.9-2,2-2h25.3c1.1,0,2.1,0.4,2.8,1.2l8.7,8.7c0.7,0.8,1.2,1.8,1.2,2.8V53c0,1.1-0.9,2-2,2H17 C15.9,55,15,54.1,15,53z"/><path fill="#cce7fc" d="M55.1 36.9V17.7L51.4 17 15.2 53.1c.5 1.1 1.6 1.8 2.8 1.8h19.1L55.1 36.9zM46.4 11.6L15 43v6l35.2-35.2C49.9 12.7 46.4 11.6 46.4 11.6zM14.9 37.2L43 9 46 9 14.9 40.2z"/><path fill="#fff" d="M23.5 10L24.7 12.3 27 13.5 24.7 14.7 23.5 17 22.3 14.7 20 13.5 22.3 12.3zM44.4 26L45.3 27.6 46.8 28.4 45.3 29.3 44.4 30.8 43.6 29.3 42 28.4 43.6 27.6zM24.6 38L25.2 39.1 26.3 39.7 25.2 40.2 24.6 41.3 24.1 40.2 23 39.7 24.1 39.1z"/><path fill="#f9e3ae" d="M43.3,4.8v9.6c0,1.3,1.1,2.4,2.4,2.4h9.6L43.3,4.8z"/><path fill="#8d6c9f" d="M54.5,14.1l-8.7-8.7C44.9,4.5,43.7,4,42.3,4H17c-1.7,0-3,1.3-3,3v1h-1c-1.7,0-3,1.3-3,3v46c0,1.7,1.3,3,3,3h36 c1.7,0,3-1.3,3-3v-1h1c1.7,0,3-1.3,3-3V17.7C56,16.3,55.5,15.1,54.5,14.1z M53.1,15.5c0.1,0.1,0.3,0.3,0.4,0.5H45c-0.6,0-1-0.4-1-1 V6.5c0.2,0.1,0.3,0.2,0.5,0.4L53.1,15.5z M50,57c0,0.6-0.4,1-1,1H13c-0.6,0-1-0.4-1-1V11c0-0.6,0.4-1,1-1h1v43c0,1.7,1.3,3,3,3h33 V57z M53,54H17c-0.6,0-1-0.4-1-1V7c0-0.6,0.4-1,1-1h25v9c0,1.7,1.3,3,3,3h9v35C54,53.6,53.6,54,53,54z"/><path fill="#8d6c9f" d="M22 46c-.6 0-1 .4-1 1v2c0 .6.4 1 1 1s1-.4 1-1v-2C23 46.4 22.6 46 22 46zM27 46c-.6 0-1 .4-1 1v2c0 .6.4 1 1 1s1-.4 1-1v-2C28 46.4 27.6 46 27 46zM32 46c-.6 0-1 .4-1 1v2c0 .6.4 1 1 1s1-.4 1-1v-2C33 46.4 32.6 46 32 46zM37 46c-.6 0-1 .4-1 1v2c0 .6.4 1 1 1s1-.4 1-1v-2C38 46.4 37.6 46 37 46zM42 46c-.6 0-1 .4-1 1v2c0 .6.4 1 1 1s1-.4 1-1v-2C43 46.4 42.6 46 42 46zM47 46c-.6 0-1 .4-1 1v2c0 .6.4 1 1 1s1-.4 1-1v-2C48 46.4 47.6 46 47 46zM52 46c-.6 0-1 .4-1 1v2c0 .6.4 1 1 1s1-.4 1-1v-2C53 46.4 52.6 46 52 46zM35 37A2 2 0 1 0 35 41 2 2 0 1 0 35 37zM42 23c0-2.8-2.2-5-5-5h-3c-2.8 0-5 2.2-5 5 0 .6.4 1 1 1s1-.4 1-1c0-1.7 1.3-3 3-3h3c1.7 0 3 1.3 3 3v.8c0 1.5-.9 2.8-2.3 3.2-2.2.7-3.7 2.8-3.7 5.1V34c0 .6.4 1 1 1s1-.4 1-1v-1.8c0-1.5.9-2.8 2.3-3.2 2.2-.7 3.7-2.8 3.7-5.1V23z"/></svg>